<?xml version="1.0" standalone="no"?>
<!DOCTYPE svg PUBLIC "-//W3C//DTD SVG 20010904//EN"
 "http://www.w3.org/TR/2001/REC-SVG-20010904/DTD/svg10.dtd">
<svg version="1.0" xmlns="http://www.w3.org/2000/svg"
 width="684.000000pt" height="684.000000pt" viewBox="0 0 684.000000 684.000000"
 preserveAspectRatio="xMidYMid meet">

<g transform="translate(0.000000,684.000000) scale(0.100000,-0.100000)"
fill="#000000" stroke="none">
<path d="M3350 6160 c-19 -11 -40 -20 -47 -20 -6 0 -55 -20 -107 -45 -53 -25
-103 -45 -111 -45 -8 0 -15 -4 -15 -8 0 -5 -44 -26 -97 -47 -54 -22 -122 -52
-151 -67 -29 -15 -57 -28 -62 -28 -5 0 -37 -13 -72 -29 -35 -15 -83 -37 -108
-47 -25 -10 -62 -28 -82 -41 -21 -13 -43 -23 -50 -23 -7 0 -35 -12 -63 -25
-27 -14 -54 -25 -58 -25 -5 0 -57 -23 -115 -51 -59 -28 -127 -59 -152 -69 -49
-19 -185 -81 -239 -108 -19 -9 -43 -30 -55 -45 -20 -28 -21 -37 -18 -345 2
-174 5 -339 7 -367 3 -27 7 -81 9 -120 11 -170 51 -447 83 -570 9 -33 17 -69
19 -80 7 -40 33 -131 53 -190 12 -33 30 -86 41 -118 17 -50 63 -156 104 -237
63 -124 89 -170 97 -170 5 0 9 -6 9 -12 1 -7 23 -43 51 -80 49 -68 50 -68 97
-68 73 0 259 20 332 35 93 20 189 42 230 54 19 6 69 19 110 30 91 24 219 63
280 86 25 9 57 20 71 24 14 5 37 15 50 22 13 7 51 23 84 35 33 12 92 36 130
54 187 87 216 100 224 100 5 0 11 4 13 8 2 4 32 23 68 41 154 77 322 210 500
396 57 61 107 112 110 115 3 3 23 28 45 55 21 28 42 52 45 55 14 13 50 70 50
79 0 6 6 14 14 18 12 7 226 319 226 329 0 3 11 21 24 42 49 77 169 315 177
350 5 21 9 110 9 199 1 230 3 228 -250 340 -30 13 -73 33 -95 43 -119 55 -287
130 -291 130 -5 0 -99 43 -219 100 -44 21 -100 46 -125 55 -25 10 -67 28 -95
41 -27 12 -79 35 -115 49 -36 15 -83 37 -105 49 -22 13 -62 31 -90 41 -27 11
-59 24 -70 31 -11 6 -31 15 -45 19 -14 4 -54 21 -90 37 -84 39 -125 43 -170
18z m120 -330 c38 -9 92 -28 250 -92 45 -18 145 -72 166 -89 6 -5 14 -6 17 -2
4 3 15 -1 24 -9 10 -8 35 -22 55 -32 48 -21 54 -33 32 -57 -37 -41 -83 -138
-96 -203 -19 -100 -19 -131 1 -206 23 -86 19 -94 -48 -106 -20 -4 -44 -11 -54
-16 -27 -14 -185 -53 -317 -78 -63 -12 -122 -24 -130 -28 -8 -3 -28 -6 -45 -7
-16 -1 -90 -9 -164 -18 -244 -31 -577 -22 -721 19 -30 8 -69 19 -87 24 -139
35 -358 209 -336 267 6 15 283 153 308 153 7 0 15 3 17 8 2 4 32 21 68 38 36
17 121 58 190 92 390 188 483 232 555 261 11 4 40 17 65 29 59 28 160 61 185
61 11 0 40 -4 65 -9z m958 -436 c31 -14 64 -29 72 -35 20 -12 162 -80 175 -83
9 -2 84 -36 94 -43 5 -3 -18 -124 -29 -148 -5 -11 -13 -40 -19 -65 -14 -68
-77 -234 -90 -238 -6 -2 -37 20 -68 49 -32 28 -76 64 -98 78 -83 53 -201 163
-235 219 -65 106 -41 215 59 267 59 31 70 31 139 -1z m-283 -611 c0 -32 -413
-258 -540 -296 -27 -8 -67 -22 -87 -31 -21 -9 -62 -23 -90 -31 -29 -8 -84 -24
-123 -36 -38 -12 -79 -22 -90 -23 -11 -2 -27 -5 -35 -9 -15 -6 -140 -25 -215
-33 -22 -2 -60 -6 -85 -9 -136 -17 -634 5 -715 32 -23 8 -31 9 -62 11 -27 2
-39 38 -49 152 -7 79 -7 230 -1 237 2 1 28 -11 58 -27 75 -41 85 -45 159 -68
122 -37 210 -53 370 -67 166 -14 200 -15 200 -5 0 6 5 8 11 4 12 -7 160 -6
239 2 126 12 165 17 280 35 111 18 198 34 310 59 59 13 302 81 360 101 60 20
105 21 105 2z m278 -249 c30 -79 12 -131 -82 -246 -90 -109 -172 -193 -244
-248 -29 -22 -78 -60 -110 -85 -31 -25 -60 -45 -63 -45 -3 0 -31 -17 -62 -39
-89 -60 -110 -72 -221 -128 -57 -29 -108 -50 -112 -47 -5 3 -12 -2 -15 -10 -3
-9 -10 -16 -15 -16 -10 0 -84 -32 -139 -60 -19 -10 -75 -32 -125 -49 -49 -18
-99 -36 -110 -41 -11 -5 -56 -19 -100 -30 -44 -12 -113 -32 -153 -46 -88 -29
-225 -54 -301 -54 -100 0 -128 14 -213 102 -43 44 -78 84 -78 90 0 5 -18 48
-40 94 -47 97 -105 268 -114 338 l-7 48 48 -7 c85 -13 97 -15 167 -20 38 -3
73 -8 77 -11 15 -9 410 -4 523 6 206 19 534 85 591 119 6 3 15 6 20 6 6 1 19
5 30 9 11 4 37 14 57 22 35 13 96 39 163 69 62 28 301 146 320 158 37 23 67
42 244 159 14 10 30 16 36 15 5 -2 18 -26 28 -53z"/>
<path d="M5057 4656 c-20 -41 -44 -79 -52 -86 -8 -7 -15 -18 -15 -24 0 -13
-87 -164 -154 -266 -52 -79 -56 -89 -62 -162 -5 -58 -35 -238 -53 -313 -31
-137 -109 -352 -168 -464 -13 -24 -23 -48 -23 -52 0 -5 -17 -35 -37 -66 -21
-32 -42 -65 -48 -75 -89 -146 -202 -275 -355 -408 -35 -30 -76 -67 -92 -82
-16 -16 -31 -28 -33 -28 -6 0 -118 -71 -125 -79 -3 -3 -23 -15 -45 -26 -22
-11 -46 -27 -55 -35 -8 -8 -19 -15 -25 -16 -10 0 -86 -34 -170 -76 -50 -24
-115 -48 -134 -48 -13 0 -134 50 -171 70 -8 5 -46 25 -85 44 -128 66 -200 112
-291 189 -25 20 -48 37 -52 37 -4 0 -50 41 -102 91 l-95 90 -45 -5 c-25 -3
-98 -11 -162 -17 -71 -8 -118 -17 -118 -23 0 -6 22 -34 48 -63 26 -28 61 -66
77 -85 43 -46 193 -188 200 -188 3 0 59 -39 125 -87 65 -49 154 -108 197 -132
145 -82 332 -171 358 -171 8 0 30 -9 50 -20 52 -29 84 -25 213 26 198 78 495
242 604 333 7 6 40 32 73 58 52 41 170 156 270 264 92 99 270 384 330 529 14
36 33 79 41 97 8 17 14 36 14 42 0 6 4 19 10 29 12 22 56 175 65 226 3 21 10
46 15 55 5 9 18 66 29 126 44 242 51 281 55 315 13 101 40 550 34 550 -2 0
-20 -33 -41 -74z"/>
<path d="M6035 1110 c-3 -5 -3 -48 1 -95 7 -91 1 -102 -42 -70 -48 36 -134 1
-169 -70 -24 -50 -25 -154 -2 -207 30 -71 111 -97 175 -58 39 24 52 25 52 5 0
-10 10 -15 34 -15 33 0 33 1 38 53 9 86 0 410 -11 440 -8 21 -17 27 -40 27
-16 0 -33 -4 -36 -10z m-21 -251 c23 -18 26 -27 26 -82 0 -74 -24 -107 -76
-107 -47 0 -74 38 -74 105 0 93 61 134 124 84z"/>
<path d="M807 1095 c-47 -24 -57 -42 -63 -107 -8 -84 15 -119 109 -165 83 -41
101 -70 70 -111 -18 -24 -27 -27 -75 -26 -32 1 -65 8 -79 18 -30 19 -39 13
-39 -26 0 -24 7 -32 43 -48 127 -58 266 17 254 137 -7 63 -28 87 -112 127
-108 51 -121 92 -43 132 25 13 32 13 68 -6 49 -25 60 -25 60 0 0 35 -22 69
-53 80 -42 14 -107 12 -140 -5z"/>
<path d="M3019 1092 c-4 -22 3 -467 7 -474 3 -4 21 -8 40 -8 l34 0 1 88 c1
208 -2 341 -9 367 -6 22 -15 29 -40 31 -18 2 -33 0 -33 -4z"/>
<path d="M3305 1079 c-41 -20 -60 -35 -60 -47 -1 -4 -9 -23 -20 -42 -28 -51
-34 -214 -10 -276 26 -70 100 -114 191 -114 23 0 55 5 70 10 23 9 31 7 53 -13
31 -28 72 -54 106 -67 20 -7 27 -6 34 9 16 30 1 61 -41 82 -46 23 -56 43 -35
67 36 41 51 210 24 275 -21 49 -67 98 -112 118 -55 25 -148 24 -200 -2z m160
-73 c56 -24 70 -56 70 -163 l0 -93 -36 -36 c-29 -29 -45 -37 -75 -38 -48 -1
-95 18 -112 45 -24 37 -33 120 -21 179 12 62 30 87 74 106 39 17 58 17 100 0z"/>
<path d="M4024 1090 c-39 -9 -96 -48 -89 -61 4 -5 2 -9 -2 -9 -5 0 -19 -21
-31 -46 -31 -62 -33 -202 -4 -267 31 -69 98 -107 190 -107 79 0 122 26 122 75
0 39 -2 41 -33 21 -12 -8 -45 -16 -74 -17 -97 -5 -139 52 -130 176 6 90 20
119 68 141 40 17 59 16 147 -11 19 -6 22 -4 22 22 0 66 -91 106 -186 83z"/>
<path d="M5248 853 c2 -126 5 -234 7 -240 3 -10 37 -13 124 -13 112 0 119 1
124 21 11 42 0 49 -84 49 l-79 0 0 153 c0 83 -3 176 -6 205 l-7 52 -41 0 -41
0 3 -227z"/>
<path d="M5585 1043 c-5 -5 -10 -26 -10 -48 0 -34 -3 -40 -22 -43 -15 -2 -25
-13 -29 -28 -7 -28 1 -40 31 -46 18 -3 20 -13 25 -120 6 -133 15 -152 83 -162
52 -8 77 7 77 46 0 25 -3 29 -19 25 -50 -13 -81 69 -63 168 7 37 10 40 45 43
35 3 37 5 37 37 0 32 -2 34 -37 37 -34 3 -38 6 -45 42 -5 22 -10 41 -11 42 -8
8 -54 13 -62 7z"/>
<path d="M1205 972 c-32 -7 -72 -39 -96 -78 -30 -49 -31 -152 -1 -210 25 -50
58 -66 147 -71 84 -5 118 9 123 50 3 28 3 28 -35 20 -70 -14 -126 -6 -151 23
-43 49 -29 59 91 62 l107 3 0 61 c0 57 -2 63 -39 99 -21 22 -47 40 -57 40 -56
4 -71 4 -89 1z m95 -81 c5 -11 10 -29 10 -40 0 -19 -6 -21 -70 -21 -78 0 -89
13 -48 57 28 30 92 32 108 4z"/>
<path d="M1521 935 c-79 -72 -81 -230 -2 -299 30 -27 127 -34 169 -12 27 14
32 22 32 51 0 38 -5 42 -34 20 -24 -18 -85 -19 -106 -2 -28 22 -37 58 -29 116
6 39 14 61 30 73 27 22 72 23 104 2 23 -15 25 -15 31 0 11 28 -5 66 -32 76
-14 6 -47 10 -75 10 -42 0 -54 -5 -88 -35z"/>
<path d="M1820 963 c-25 -10 -27 -20 -25 -147 4 -167 25 -206 110 -206 20 0
53 9 74 20 39 19 39 19 53 -1 10 -16 19 -19 41 -14 l27 7 0 168 0 167 -37 6
c-20 4 -39 4 -43 2 -5 -3 -8 -58 -9 -122 -1 -113 -2 -119 -27 -140 -32 -29
-65 -29 -90 -2 -16 18 -19 37 -19 133 0 133 -6 147 -55 129z"/>
<path d="M2211 962 c-8 -3 -11 -55 -11 -172 l0 -168 30 -7 c16 -4 34 -4 40 0
6 4 10 51 10 114 0 103 1 109 26 132 16 15 38 24 57 24 31 0 32 2 32 40 0 38
-2 40 -32 43 -24 2 -39 -3 -58 -23 -28 -27 -45 -25 -45 5 0 18 -18 22 -49 12z"/>
<path d="M2545 960 c-31 -13 -66 -50 -81 -86 -21 -50 -18 -140 6 -190 29 -60
70 -77 171 -72 84 3 97 10 101 48 3 27 6 26 -74 13 -61 -9 -101 3 -122 38 -10
17 -14 35 -10 39 5 5 53 10 107 12 105 4 117 9 117 59 0 41 -26 94 -60 123
-26 21 -41 26 -83 25 -29 0 -61 -4 -72 -9z m108 -67 c15 -18 21 -36 18 -60 -1
-14 -128 -17 -136 -3 -7 12 21 67 37 73 28 11 66 6 81 -10z"/>
<path d="M4333 925 c-48 -41 -66 -86 -65 -159 3 -116 63 -171 180 -164 111 6
156 58 156 178 0 124 -51 180 -166 180 -59 0 -68 -3 -105 -35z m163 -56 c13
-14 19 -40 22 -87 3 -57 1 -70 -17 -89 -69 -74 -164 -2 -147 111 4 24 16 53
27 65 27 29 89 29 115 0z"/>
<path d="M4702 688 c-15 -15 -16 -43 -2 -69 8 -13 21 -19 45 -19 28 0 36 4 41
24 12 49 2 71 -36 74 -19 2 -41 -3 -48 -10z"/>
<path d="M4907 693 c-4 -3 -7 -22 -7 -42 0 -20 -9 -60 -21 -90 -11 -30 -16
-57 -12 -61 16 -15 50 9 81 56 37 55 50 108 32 129 -13 15 -61 21 -73 8z"/>
</g>
</svg>
